<svg width="1572" height="390" viewBox="0 0 1572 390" fill="none" xmlns="http://www.w3.org/2000/svg">
<path d="M32.5908 64.2168L3.43572e-05 64.2168L0 326.217L317 326.217L272.846 287.18L141.518 287.18L32.5908 64.2168Z" fill="black"/>
<path fill-rule="evenodd" clip-rule="evenodd" d="M272 275.217L154.753 275.217L39 64.2168L272 64.2168L272 275.217Z" fill="black"/>
<rect x="28" y="64.2168" width="130" height="79" fill="black"/>
<ellipse cx="141" cy="195.717" rx="92" ry="92.5" fill="white"/>
<path d="M468.52 313.2C444.413 313.2 423.72 308.08 406.44 297.84C389.16 287.6 375.933 273.52 366.76 255.6C357.587 237.467 353 216.88 353 193.84C353 171.013 357.693 150.747 367.08 133.04C376.467 115.333 389.373 101.467 405.8 91.44C422.44 81.4133 441.32 76.4 462.44 76.4C483.987 76.4 502.973 81.4133 519.4 91.44C536.04 101.467 549.053 115.333 558.44 133.04C567.827 150.747 572.52 171.12 572.52 194.16C572.52 211.227 569.64 227.12 563.88 241.84C558.12 256.347 549.693 268.507 538.6 278.32C527.507 288.133 513.747 294.747 497.32 298.16L468.52 313.2ZM462.44 290.8C479.293 290.8 493.907 286.64 506.28 278.32C518.653 269.787 528.253 258.16 535.08 243.44C542.12 228.72 545.64 212.08 545.64 193.52C545.64 175.173 542.12 158.96 535.08 144.88C528.253 130.8 518.547 119.813 505.96 111.92C493.587 104.027 479.08 100.08 462.44 100.08C445.8 100.08 431.293 104.027 418.92 111.92C406.547 119.813 396.947 130.8 390.12 144.88C383.293 158.747 379.88 174.96 379.88 193.52C379.88 212.293 383.293 229.04 390.12 243.76C397.16 258.267 406.867 269.787 419.24 278.32C431.613 286.64 446.013 290.8 462.44 290.8ZM468.52 313.2L462.76 295.92L581.16 286.96V310C568.147 310 557.16 310.107 548.2 310.32C539.453 310.747 531.347 311.173 523.88 311.6C516.413 312.027 508.413 312.347 499.88 312.56C491.347 312.987 480.893 313.2 468.52 313.2ZM655.658 313.2C644.991 313.2 635.498 311.067 627.178 306.8C618.858 302.32 612.351 296.133 607.658 288.24C602.964 280.133 600.618 270.853 600.618 260.4V146.8H626.218V253.68C626.218 266.053 629.204 275.333 635.178 281.52C641.364 287.707 650.111 290.8 661.417 290.8C671.658 290.8 680.724 288.453 688.618 283.76C696.511 279.067 702.698 272.56 707.178 264.24C711.871 255.707 714.218 246 714.218 235.12L718.378 273.84C713.044 286 704.724 295.6 693.418 302.64C682.111 309.68 669.524 313.2 655.658 313.2ZM715.818 310V271.6H714.218V146.8H739.818V310H715.818ZM842.19 313.2C826.19 313.2 812.11 309.467 799.95 302C787.79 294.533 778.297 284.4 771.47 271.6C764.857 258.587 761.55 243.973 761.55 227.76C761.55 211.333 764.963 196.827 771.79 184.24C778.617 171.653 788.003 161.733 799.95 154.48C812.11 147.227 826.19 143.6 842.19 143.6C858.403 143.6 872.483 147.227 884.43 154.48C896.59 161.733 905.977 171.653 912.59 184.24C919.417 196.827 922.83 211.333 922.83 227.76C922.83 243.973 919.417 258.587 912.59 271.6C905.977 284.4 896.59 294.533 884.43 302C872.483 309.467 858.403 313.2 842.19 313.2ZM842.19 291.44C853.283 291.44 862.883 288.773 870.99 283.44C879.097 277.893 885.39 270.32 889.87 260.72C894.35 251.12 896.59 240.027 896.59 227.44C896.59 208.667 891.577 193.627 881.55 182.32C871.737 171.013 858.617 165.36 842.19 165.36C825.977 165.36 812.857 171.013 802.83 182.32C792.803 193.627 787.79 208.667 787.79 227.44C787.79 240.027 790.03 251.12 794.51 260.72C798.99 270.32 805.283 277.893 813.39 283.44C821.71 288.773 831.31 291.44 842.19 291.44ZM1008.94 312.88C990.809 312.88 977.583 308.827 969.263 300.72C961.156 292.4 957.103 280.453 957.103 264.88V108.72L982.703 99.12V264.56C982.703 273.733 985.049 280.453 989.743 284.72C994.436 288.987 1002.12 291.12 1012.78 291.12C1017.05 291.12 1020.68 290.907 1023.66 290.48C1026.86 289.84 1029.42 289.093 1031.34 288.24V310C1029.21 310.853 1026.12 311.493 1022.06 311.92C1018.22 312.56 1013.85 312.88 1008.94 312.88ZM923.503 168.56V146.8H1031.34V168.56H923.503ZM1064.29 310V146.8H1089.89V310H1064.29ZM1062.37 109.68V79.6H1091.81V109.68H1062.37ZM1207.42 313.2C1191.84 313.2 1178.08 309.573 1166.14 302.32C1154.19 294.853 1144.8 284.72 1137.98 271.92C1131.15 259.12 1127.74 244.4 1127.74 227.76C1127.74 211.12 1131.04 196.507 1137.66 183.92C1144.48 171.12 1153.98 161.2 1166.14 154.16C1178.3 147.12 1192.27 143.6 1208.06 143.6C1223.2 143.6 1236.32 146.907 1247.42 153.52C1258.72 160.133 1267.36 169.413 1273.34 181.36C1279.52 193.307 1282.62 207.387 1282.62 223.6C1282.62 225.733 1282.51 227.76 1282.3 229.68C1282.3 231.6 1282.08 233.733 1281.66 236.08H1146.94V214.64H1265.98L1257.66 226.48C1257.66 206.853 1253.28 191.813 1244.54 181.36C1236 170.693 1223.84 165.36 1208.06 165.36C1191.84 165.36 1178.72 171.013 1168.7 182.32C1158.88 193.413 1153.98 208.453 1153.98 227.44C1153.98 246.853 1158.88 262.427 1168.7 274.16C1178.72 285.68 1192.06 291.44 1208.7 291.44C1219.15 291.44 1228.32 289.2 1236.22 284.72C1244.11 280.027 1249.87 273.413 1253.5 264.88H1277.82C1272.48 279.813 1263.52 291.653 1250.94 300.4C1238.56 308.933 1224.06 313.2 1207.42 313.2ZM1305.16 310V146.8H1329.16V185.2H1330.76V310H1305.16ZM1421.96 310V203.12C1421.96 190.747 1418.87 181.467 1412.68 175.28C1406.5 169.093 1397.32 166 1385.16 166C1374.5 166 1365 168.347 1356.68 173.04C1348.58 177.733 1342.18 184.24 1337.48 192.56C1333 200.88 1330.76 210.587 1330.76 221.68L1326.6 182.96C1332.15 170.8 1340.58 161.2 1351.88 154.16C1363.4 147.12 1376.42 143.6 1390.92 143.6C1407.99 143.6 1421.64 148.507 1431.88 158.32C1442.34 167.92 1447.56 180.613 1447.56 196.4V310H1421.96ZM1541.63 312.88C1523.5 312.88 1510.27 308.827 1501.95 300.72C1493.84 292.4 1489.79 280.453 1489.79 264.88V108.72L1515.39 99.12V264.56C1515.39 273.733 1517.74 280.453 1522.43 284.72C1527.12 288.987 1534.8 291.12 1545.47 291.12C1549.74 291.12 1553.36 290.907 1556.35 290.48C1559.55 289.84 1562.11 289.093 1564.03 288.24V310C1561.9 310.853 1558.8 311.493 1554.75 311.92C1550.91 312.56 1546.54 312.88 1541.63 312.88ZM1456.19 168.56V146.8H1564.03V168.56H1456.19Z" fill="black"/>
</svg>
